<svg aria-roledescription="mindmap" role="graphics-document document" viewBox="5 5 1162.0126953125 552.490234375" style="max-width: 1162.01px; background-color: white;" xmlns:xlink="http://www.w3.org/1999/xlink" xmlns="http://www.w3.org/2000/svg" width="100%" id="my-svg"><style>#my-svg{font-family:"trebuchet ms",verdana,arial,sans-serif;font-size:16px;fill:#333;}@keyframes edge-animation-frame{from{stroke-dashoffset:0;}}@keyframes dash{to{stroke-dashoffset:0;}}#my-svg .edge-animation-slow{stroke-dasharray:9,5!important;stroke-dashoffset:900;animation:dash 50s linear infinite;stroke-linecap:round;}#my-svg .edge-animation-fast{stroke-dasharray:9,5!important;stroke-dashoffset:900;animation:dash 20s linear infinite;stroke-linecap:round;}#my-svg .error-icon{fill:#552222;}#my-svg .error-text{fill:#552222;stroke:#552222;}#my-svg .edge-thickness-normal{stroke-width:1px;}#my-svg .edge-thickness-thick{stroke-width:3.5px;}#my-svg .edge-pattern-solid{stroke-dasharray:0;}#my-svg .edge-thickness-invisible{stroke-width:0;fill:none;}#my-svg .edge-pattern-dashed{stroke-dasharray:3;}#my-svg .edge-pattern-dotted{stroke-dasharray:2;}#my-svg .marker{fill:#333333;stroke:#333333;}#my-svg .marker.cross{stroke:#333333;}#my-svg svg{font-family:"trebuchet ms",verdana,arial,sans-serif;font-size:16px;}#my-svg p{margin:0;}#my-svg .edge{stroke-width:3;}#my-svg .section--1 rect,#my-svg .section--1 path,#my-svg .section--1 circle,#my-svg .section--1 polygon,#my-svg .section--1 path{fill:hsl(240, 100%, 76.2745098039%);}#my-svg .section--1 text{fill:#ffffff;}#my-svg .node-icon--1{font-size:40px;color:#ffffff;}#my-svg .section-edge--1{stroke:hsl(240, 100%, 76.2745098039%);}#my-svg .edge-depth--1{stroke-width:17;}#my-svg .section--1 line{stroke:hsl(60, 100%, 86.2745098039%);stroke-width:3;}#my-svg .disabled,#my-svg .disabled circle,#my-svg .disabled text{fill:lightgray;}#my-svg .disabled text{fill:#efefef;}#my-svg .section-0 rect,#my-svg .section-0 path,#my-svg .section-0 circle,#my-svg .section-0 polygon,#my-svg .section-0 path{fill:hsl(60, 100%, 73.5294117647%);}#my-svg .section-0 text{fill:black;}#my-svg .node-icon-0{font-size:40px;color:black;}#my-svg .section-edge-0{stroke:hsl(60, 100%, 73.5294117647%);}#my-svg .edge-depth-0{stroke-width:14;}#my-svg .section-0 line{stroke:hsl(240, 100%, 83.5294117647%);stroke-width:3;}#my-svg .disabled,#my-svg .disabled circle,#my-svg .disabled text{fill:lightgray;}#my-svg .disabled text{fill:#efefef;}#my-svg .section-1 rect,#my-svg .section-1 path,#my-svg .section-1 circle,#my-svg .section-1 polygon,#my-svg .section-1 path{fill:hsl(80, 100%, 76.2745098039%);}#my-svg .section-1 text{fill:black;}#my-svg .node-icon-1{font-size:40px;color:black;}#my-svg .section-edge-1{stroke:hsl(80, 100%, 76.2745098039%);}#my-svg .edge-depth-1{stroke-width:11;}#my-svg .section-1 line{stroke:hsl(260, 100%, 86.2745098039%);stroke-width:3;}#my-svg .disabled,#my-svg .disabled circle,#my-svg .disabled text{fill:lightgray;}#my-svg .disabled text{fill:#efefef;}#my-svg .section-2 rect,#my-svg .section-2 path,#my-svg .section-2 circle,#my-svg .section-2 polygon,#my-svg .section-2 path{fill:hsl(270, 100%, 76.2745098039%);}#my-svg .section-2 text{fill:#ffffff;}#my-svg .node-icon-2{font-size:40px;color:#ffffff;}#my-svg .section-edge-2{stroke:hsl(270, 100%, 76.2745098039%);}#my-svg .edge-depth-2{stroke-width:8;}#my-svg .section-2 line{stroke:hsl(90, 100%, 86.2745098039%);stroke-width:3;}#my-svg .disabled,#my-svg .disabled circle,#my-svg .disabled text{fill:lightgray;}#my-svg .disabled text{fill:#efefef;}#my-svg .section-3 rect,#my-svg .section-3 path,#my-svg .section-3 circle,#my-svg .section-3 polygon,#my-svg .section-3 path{fill:hsl(300, 100%, 76.2745098039%);}#my-svg .section-3 text{fill:black;}#my-svg .node-icon-3{font-size:40px;color:black;}#my-svg .section-edge-3{stroke:hsl(300, 100%, 76.2745098039%);}#my-svg .edge-depth-3{stroke-width:5;}#my-svg .section-3 line{stroke:hsl(120, 100%, 86.2745098039%);stroke-width:3;}#my-svg .disabled,#my-svg .disabled circle,#my-svg .disabled text{fill:lightgray;}#my-svg .disabled text{fill:#efefef;}#my-svg .section-4 rect,#my-svg .section-4 path,#my-svg .section-4 circle,#my-svg .section-4 polygon,#my-svg .section-4 path{fill:hsl(330, 100%, 76.2745098039%);}#my-svg .section-4 text{fill:black;}#my-svg .node-icon-4{font-size:40px;color:black;}#my-svg .section-edge-4{stroke:hsl(330, 100%, 76.2745098039%);}#my-svg .edge-depth-4{stroke-width:2;}#my-svg .section-4 line{stroke:hsl(150, 100%, 86.2745098039%);stroke-width:3;}#my-svg .disabled,#my-svg .disabled circle,#my-svg .disabled text{fill:lightgray;}#my-svg .disabled text{fill:#efefef;}#my-svg .section-5 rect,#my-svg .section-5 path,#my-svg .section-5 circle,#my-svg .section-5 polygon,#my-svg .section-5 path{fill:hsl(0, 100%, 76.2745098039%);}#my-svg .section-5 text{fill:black;}#my-svg .node-icon-5{font-size:40px;color:black;}#my-svg .section-edge-5{stroke:hsl(0, 100%, 76.2745098039%);}#my-svg .edge-depth-5{stroke-width:-1;}#my-svg .section-5 line{stroke:hsl(180, 100%, 86.2745098039%);stroke-width:3;}#my-svg .disabled,#my-svg .disabled circle,#my-svg .disabled text{fill:lightgray;}#my-svg .disabled text{fill:#efefef;}#my-svg .section-6 rect,#my-svg .section-6 path,#my-svg .section-6 circle,#my-svg .section-6 polygon,#my-svg .section-6 path{fill:hsl(30, 100%, 76.2745098039%);}#my-svg .section-6 text{fill:black;}#my-svg .node-icon-6{font-size:40px;color:black;}#my-svg .section-edge-6{stroke:hsl(30, 100%, 76.2745098039%);}#my-svg .edge-depth-6{stroke-width:-4;}#my-svg .section-6 line{stroke:hsl(210, 100%, 86.2745098039%);stroke-width:3;}#my-svg .disabled,#my-svg .disabled circle,#my-svg .disabled text{fill:lightgray;}#my-svg .disabled text{fill:#efefef;}#my-svg .section-7 rect,#my-svg .section-7 path,#my-svg .section-7 circle,#my-svg .section-7 polygon,#my-svg .section-7 path{fill:hsl(90, 100%, 76.2745098039%);}#my-svg .section-7 text{fill:black;}#my-svg .node-icon-7{font-size:40px;color:black;}#my-svg .section-edge-7{stroke:hsl(90, 100%, 76.2745098039%);}#my-svg .edge-depth-7{stroke-width:-7;}#my-svg .section-7 line{stroke:hsl(270, 100%, 86.2745098039%);stroke-width:3;}#my-svg .disabled,#my-svg .disabled circle,#my-svg .disabled text{fill:lightgray;}#my-svg .disabled text{fill:#efefef;}#my-svg .section-8 rect,#my-svg .section-8 path,#my-svg .section-8 circle,#my-svg .section-8 polygon,#my-svg .section-8 path{fill:hsl(150, 100%, 76.2745098039%);}#my-svg .section-8 text{fill:black;}#my-svg .node-icon-8{font-size:40px;color:black;}#my-svg .section-edge-8{stroke:hsl(150, 100%, 76.2745098039%);}#my-svg .edge-depth-8{stroke-width:-10;}#my-svg .section-8 line{stroke:hsl(330, 100%, 86.2745098039%);stroke-width:3;}#my-svg .disabled,#my-svg .disabled circle,#my-svg .disabled text{fill:lightgray;}#my-svg .disabled text{fill:#efefef;}#my-svg .section-9 rect,#my-svg .section-9 path,#my-svg .section-9 circle,#my-svg .section-9 polygon,#my-svg .section-9 path{fill:hsl(180, 100%, 76.2745098039%);}#my-svg .section-9 text{fill:black;}#my-svg .node-icon-9{font-size:40px;color:black;}#my-svg .section-edge-9{stroke:hsl(180, 100%, 76.2745098039%);}#my-svg .edge-depth-9{stroke-width:-13;}#my-svg .section-9 line{stroke:hsl(0, 100%, 86.2745098039%);stroke-width:3;}#my-svg .disabled,#my-svg .disabled circle,#my-svg .disabled text{fill:lightgray;}#my-svg .disabled text{fill:#efefef;}#my-svg .section-10 rect,#my-svg .section-10 path,#my-svg .section-10 circle,#my-svg .section-10 polygon,#my-svg .section-10 path{fill:hsl(210, 100%, 76.2745098039%);}#my-svg .section-10 text{fill:black;}#my-svg .node-icon-10{font-size:40px;color:black;}#my-svg .section-edge-10{stroke:hsl(210, 100%, 76.2745098039%);}#my-svg .edge-depth-10{stroke-width:-16;}#my-svg .section-10 line{stroke:hsl(30, 100%, 86.2745098039%);stroke-width:3;}#my-svg .disabled,#my-svg .disabled circle,#my-svg .disabled text{fill:lightgray;}#my-svg .disabled text{fill:#efefef;}#my-svg .section-root rect,#my-svg .section-root path,#my-svg .section-root circle,#my-svg .section-root polygon{fill:hsl(240, 100%, 46.2745098039%);}#my-svg .section-root text{fill:#ffffff;}#my-svg .icon-container{height:100%;display:flex;justify-content:center;align-items:center;}#my-svg .edge{fill:none;}#my-svg .mindmap-node-label{dy:1em;alignment-baseline:middle;text-anchor:middle;dominant-baseline:middle;text-align:center;}#my-svg :root{--mermaid-font-family:"trebuchet ms",verdana,arial,sans-serif;}</style><g/><g class="mindmap-edges"><path class="edge section-edge-0 edge-depth-1" d="M 670.5750663435477,115.62904825741086 L 664.3293434000243,82.13741606046457 L658.0836204565009,48.64578386351829"/><path class="edge section-edge-0 edge-depth-1" d="M 686.5230659173471,123.24673789878254 L 736.107699331794,96.46686022237444 L785.6923327462412,69.68698254596632"/><path class="edge section-edge-0 edge-depth-1" d="M 658.8793753397313,126.3343640073287 L 580.7693469507008,104.4867674995061 L502.6593185616702,82.6391709916835"/><path class="edge section-edge-0 edge-depth-1" d="M 688.3241949362324,130.22436244541962 L 760.6349787082638,129.49895393524812 L832.9457624802952,128.77354542507663"/><path class="edge section-edge-0 edge-depth-0" d="M 651.0211096566613,231.1520728036919 L 660.5523601031315,188.086254534874 L670.0836105496016,145.02043626605615"/><path class="edge section-edge-1 edge-depth-2" d="M 648.072588083636,458.28081611352866 L 679.2678946874735,485.0950094793826 L710.463201291311,511.90920284523656"/><path class="edge section-edge-1 edge-depth-2" d="M 626.9034215186514,459.8644250988534 L 602.1781696522344,488.5466754604628 L577.4529177858174,517.2289258220721"/><path class="edge section-edge-1 edge-depth-1" d="M 603.5127330653435,366.4966720678546 L 617.2917032689544,400.5475416146098 L631.0706734725653,434.59841116136505"/><path class="edge section-edge-1 edge-depth-1" d="M 612.2403154362516,356.94580433449664 L 655.7541437379613,370.14413920098934 L699.2679720396709,383.34247406748204"/><path class="edge section-edge-1 edge-depth-1" d="M 582.9741004300632,354.21459477387856 L 539.8334401567768,358.90888359394324 L496.6927798834903,363.60317241400793"/><path class="edge section-edge-1 edge-depth-1" d="M 587.198513224437,363.116984841923 L 557.3492150081561,392.51229805627554 L527.4999167918752,421.9076112706281"/><path class="edge section-edge-1 edge-depth-0" d="M 641.4306001687642,259.3876745760797 L 622.8329244703202,299.19482315778407 L604.2352487718763,339.0019717394884"/><path class="edge section-edge-2 edge-depth-0" d="M 633.5345740413154,250.49601458209642 L 576.8358610760191,269.19633203845126 L520.1371481107228,287.8966494948061"/><path class="edge section-edge-3 edge-depth-2" d="M 270.3387832264609,212.22108896132727 L 232.21938091332675,186.50626455547592 L194.09997860019257,160.79144014962452"/><path class="edge section-edge-3 edge-depth-2" d="M 267.98486218503865,223.11651705358008 L 189.32054310883967,236.450802932981 L110.65622403264072,249.78508881238184"/><path class="edge section-edge-3 edge-depth-1" d="M 441.50598357177176,229.65135109269156 L 369.62780314466914,225.557022887677 L297.7496227175665,221.46269468266243"/><path class="edge section-edge-3 edge-depth-2" d="M 341.62699849942254,305.813363543469 L 282.91175318572743,317.3537944392941 L224.19650787203233,328.89422533511924"/><path class="edge section-edge-3 edge-depth-2" d="M 351.68999199060875,317.17976083875084 L 341.5641461298869,348.19476079156436 L331.4383002691651,379.2097607443779"/><path class="edge section-edge-3 edge-depth-1" d="M 444.32701817802604,239.29436630361357 L 406.41355132788897,266.71243717022236 L368.5000844777519,294.13050803683115"/><path class="edge section-edge-3 edge-depth-1" d="M 445.4977406678182,220.28909324395266 L 415.8003752801409,192.66995807009815 L386.10300989246355,165.05082289624363"/><path class="edge section-edge-3 edge-depth-1" d="M 466.2141194259322,219.09036552329138 L 487.87717085521024,193.68424859653888 L509.54022228448827,168.27813166978638"/><path class="edge section-edge-3 edge-depth-0" d="M 632.8274757359736,244.60231930941396 L 552.1307390592972,238.15103795888857 L471.43400238262075,231.69975660836317"/><path class="edge section-edge-4 edge-depth-1" d="M 867.6892157893909,250.615039806615 L 964.167342936275,253.73485780384232 L1060.6454700831591,256.8546758010697"/><path class="edge section-edge-4 edge-depth-1" d="M 866.2876189430222,243.78228521871142 L 918.2603594087648,219.50658848056878 L970.2330998745072,195.23089174242608"/><path class="edge section-edge-4 edge-depth-1" d="M 840.1797840324921,241.86476739071006 L 804.7870096786296,218.49401974520006 L769.3942353247671,195.12327209969007"/><path class="edge section-edge-4 edge-depth-0" d="M 662.7764189808183,246.11475067923192 L 750.2384114134429,247.9639572090929 L837.7004038460675,249.8131637389539"/><path class="edge section-edge-5 edge-depth-1" d="M 802.1176076489321,319.17631029151073 L 891.7089558305034,327.0278824643387 L981.3003040120748,334.87945463716665"/><path class="edge section-edge-5 edge-depth-1" d="M 798.7371452090781,327.4226031578479 L 832.5051256792227,355.3307471323646 L866.2731061493673,383.2388911068813"/><path class="edge section-edge-5 edge-depth-0" d="M 661.1042765753178,252.68662019866503 L 717.4773255685275,281.8322211318473 L773.8503745617371,310.9778220650296"/></g><g class="mindmap-nodes"><g transform="translate(596.5219580469354, 221.8976769488189)" class="mindmap-node section--1 section-root"><g><rect width="102.515625" ry="20" rx="20" height="47.8" class="node-bkg node-rounded-rect" id="node-0"/></g><g transform="translate(51.2578125, 10)" text-anchor="middle" dominant-baseline="middle" alignment-baseline="middle" dy="1em"><g><rect style="stroke: none" class="background"/><text style="" y="-10.1"><tspan dy="1.1em" y="-0.1em" x="0" class="text-outer-tspan"><tspan font-weight="normal" class="text-inner-tspan" font-style="normal">Interests</tspan></tspan></text></g></g></g><g transform="translate(618.0436996593276, 111.47483212092914)" class="mindmap-node section-0"><g><path d="M0 32.8 v-27.799999999999997 q0,-5 5,-5 h100.5625 q5,0 5,5 v32.8 H0 Z" class="node-bkg node-no-border" id="node-1"/><line y2="37.8" x2="110.5625" y1="37.8" x1="0" class="node-line-0"/></g><g transform="translate(55.28125, 5)" text-anchor="middle" dominant-baseline="middle" alignment-baseline="middle" dy="1em"><g><rect style="stroke: none" class="background"/><text style="" y="-10.1"><tspan dy="1.1em" y="-0.1em" x="0" class="text-outer-tspan"><tspan font-weight="normal" class="text-inner-tspan" font-style="normal">Mathematics</tspan></tspan></text></g></g></g><g transform="translate(562.612640893705, 333.69196936674916)" class="mindmap-node section-1"><g><path d="M0 32.8 v-27.799999999999997 q0,-5 5,-5 h60.546875 q5,0 5,5 v32.8 H0 Z" class="node-bkg node-no-border" id="node-6"/><line y2="37.8" x2="70.546875" y1="37.8" x1="0" class="node-line-1"/></g><g transform="translate(35.2734375, 5)" text-anchor="middle" dominant-baseline="middle" alignment-baseline="middle" dy="1em"><g><rect style="stroke: none" class="background"/><text style="" y="-10.1"><tspan dy="1.1em" y="-0.1em" x="0" class="text-outer-tspan"><tspan font-weight="normal" class="text-inner-tspan" font-style="normal">History</tspan></tspan></text></g></g></g><g transform="translate(459.9232016051028, 273.69498712808365)" class="mindmap-node section-2"><g><path d="M0 32.8 v-27.799999999999997 q0,-5 5,-5 h81.9375 q5,0 5,5 v32.8 H0 Z" class="node-bkg node-no-border" id="node-13"/><line y2="37.8" x2="91.9375" y1="37.8" x1="0" class="node-line-2"/></g><g transform="translate(45.96875, 5)" text-anchor="middle" dominant-baseline="middle" alignment-baseline="middle" dy="1em"><g><rect style="stroke: none" class="background"/><text style="" y="-10.1"><tspan dy="1.1em" y="-0.1em" x="0" class="text-outer-tspan"><tspan font-weight="normal" class="text-inner-tspan" font-style="normal">Prehistory</tspan></tspan></text></g></g></g><g transform="translate(394.21608257165894, 211.6043989689582)" class="mindmap-node section-3"><g><path d="M0 32.8 v-27.799999999999997 q0,-5 5,-5 h114.53125 q5,0 5,5 v32.8 H0 Z" class="node-bkg node-no-border" id="node-14"/><line y2="37.8" x2="124.53125" y1="37.8" x1="0" class="node-line-3"/></g><g transform="translate(62.265625, 5)" text-anchor="middle" dominant-baseline="middle" alignment-baseline="middle" dy="1em"><g><rect style="stroke: none" class="background"/><text style="" y="-10.1"><tspan dy="1.1em" y="-0.1em" x="0" class="text-outer-tspan"><tspan font-weight="normal" class="text-inner-tspan" font-style="normal">Gospel</tspan><tspan font-weight="normal" class="text-inner-tspan" font-style="normal"> Studies</tspan></tspan></text></g></g></g><g transform="translate(769.7595522799504, 231.2302374693669)" class="mindmap-node section-4"><g><path d="M0 32.8 v-27.799999999999997 q0,-5 5,-5 h155.875 q5,0 5,5 v32.8 H0 Z" class="node-bkg node-no-border" id="node-23"/><line y2="37.8" x2="165.875" y1="37.8" x1="0" class="node-line-4"/></g><g transform="translate(82.9375, 5)" text-anchor="middle" dominant-baseline="middle" alignment-baseline="middle" dy="1em"><g><rect style="stroke: none" class="background"/><text style="" y="-10.1"><tspan dy="1.1em" y="-0.1em" x="0" class="text-outer-tspan"><tspan font-weight="normal" class="text-inner-tspan" font-style="normal">Physics</tspan><tspan font-weight="normal" class="text-inner-tspan" font-style="normal"> &amp;</tspan><tspan font-weight="normal" class="text-inner-tspan" font-style="normal"> Astronomy</tspan></tspan></text></g></g></g><g transform="translate(701.5733180901195, 298.9667653148757)" class="mindmap-node section-5"><g><path d="M0 32.8 v-27.799999999999997 q0,-5 5,-5 h161.203125 q5,0 5,5 v32.8 H0 Z" class="node-bkg node-no-border" id="node-27"/><line y2="37.8" x2="171.203125" y1="37.8" x1="0" class="node-line-5"/></g><g transform="translate(85.6015625, 5)" text-anchor="middle" dominant-baseline="middle" alignment-baseline="middle" dy="1em"><g><rect style="stroke: none" class="background"/><text style="" y="-10.1"><tspan dy="1.1em" y="-0.1em" x="0" class="text-outer-tspan"><tspan font-weight="normal" class="text-inner-tspan" font-style="normal">Computation</tspan><tspan font-weight="normal" class="text-inner-tspan" font-style="normal"> Science</tspan></tspan></text></g></g></g><g transform="translate(586.450924640721, 15)" class="mindmap-node section-0"><g><path d="M0 32.8 v-27.799999999999997 q0,-5 5,-5 h127.765625 q5,0 5,5 v32.8 H0 Z" class="node-bkg node-no-border" id="node-2"/><line y2="37.8" x2="137.765625" y1="37.8" x1="0" class="node-line-0"/></g><g transform="translate(68.8828125, 5)" text-anchor="middle" dominant-baseline="middle" alignment-baseline="middle" dy="1em"><g><rect style="stroke: none" class="background"/><text style="" y="-10.1"><tspan dy="1.1em" y="-0.1em" x="0" class="text-outer-tspan"><tspan font-weight="normal" class="text-inner-tspan" font-style="normal">Category</tspan><tspan font-weight="normal" class="text-inner-tspan" font-style="normal"> Theory</tspan></tspan></text></g></g></g><g transform="translate(750.5154490042607, 43.658888323819724)" class="mindmap-node section-0"><g><path d="M0 32.8 v-27.799999999999997 q0,-5 5,-5 h86.75 q5,0 5,5 v32.8 H0 Z" class="node-bkg node-no-border" id="node-3"/><line y2="37.8" x2="96.75" y1="37.8" x1="0" class="node-line-0"/></g><g transform="translate(48.375, 5)" text-anchor="middle" dominant-baseline="middle" alignment-baseline="middle" dy="1em"><g><rect style="stroke: none" class="background"/><text style="" y="-10.1"><tspan dy="1.1em" y="-0.1em" x="0" class="text-outer-tspan"><tspan font-weight="normal" class="text-inner-tspan" font-style="normal">Set</tspan><tspan font-weight="normal" class="text-inner-tspan" font-style="normal"> Theory</tspan></tspan></text></g></g></g><g transform="translate(408.588744242074, 59.69870287808306)" class="mindmap-node section-0"><g><path d="M0 32.8 v-27.799999999999997 q0,-5 5,-5 h149.25 q5,0 5,5 v32.8 H0 Z" class="node-bkg node-no-border" id="node-4"/><line y2="37.8" x2="159.25" y1="37.8" x1="0" class="node-line-0"/></g><g transform="translate(79.625, 5)" text-anchor="middle" dominant-baseline="middle" alignment-baseline="middle" dy="1em"><g><rect style="stroke: none" class="background"/><text style="" y="-10.1"><tspan dy="1.1em" y="-0.1em" x="0" class="text-outer-tspan"><tspan font-weight="normal" class="text-inner-tspan" font-style="normal">Mathematical</tspan><tspan font-weight="normal" class="text-inner-tspan" font-style="normal"> Logic</tspan></tspan></text></g></g></g><g transform="translate(789.3981327572001, 109.7230757495671)" class="mindmap-node section-0"><g><path d="M0 32.8 v-27.799999999999997 q0,-5 5,-5 h107.09375 q5,0 5,5 v32.8 H0 Z" class="node-bkg node-no-border" id="node-5"/><line y2="37.8" x2="117.09375" y1="37.8" x1="0" class="node-line-0"/></g><g transform="translate(58.546875, 5)" text-anchor="middle" dominant-baseline="middle" alignment-baseline="middle" dy="1em"><g><rect style="stroke: none" class="background"/><text style="" y="-10.1"><tspan dy="1.1em" y="-0.1em" x="0" class="text-outer-tspan"><tspan font-weight="normal" class="text-inner-tspan" font-style="normal">Graph</tspan><tspan font-weight="normal" class="text-inner-tspan" font-style="normal"> Theory</tspan></tspan></text></g></g></g><g transform="translate(594.1817031442038, 429.60311386247054)" class="mindmap-node section-1"><g><path d="M0 32.8 v-27.799999999999997 q0,-5 5,-5 h75.03125 q5,0 5,5 v32.8 H0 Z" class="node-bkg node-no-border" id="node-7"/><line y2="37.8" x2="85.03125" y1="37.8" x1="0" class="node-line-1"/></g><g transform="translate(42.515625, 5)" text-anchor="middle" dominant-baseline="middle" alignment-baseline="middle" dy="1em"><g><rect style="stroke: none" class="background"/><text style="" y="-10.1"><tspan dy="1.1em" y="-0.1em" x="0" class="text-outer-tspan"><tspan font-weight="normal" class="text-inner-tspan" font-style="normal">Americas</tspan></tspan></text></g></g></g><g transform="translate(678.7393965822175, 368.79630903522957)" class="mindmap-node section-1"><g><path d="M0 32.8 v-27.799999999999997 q0,-5 5,-5 h59.765625 q5,0 5,5 v32.8 H0 Z" class="node-bkg node-no-border" id="node-10"/><line y2="37.8" x2="69.765625" y1="37.8" x1="0" class="node-line-1"/></g><g transform="translate(34.8828125, 5)" text-anchor="middle" dominant-baseline="middle" alignment-baseline="middle" dy="1em"><g><rect style="stroke: none" class="background"/><text style="" y="-10.1"><tspan dy="1.1em" y="-0.1em" x="0" class="text-outer-tspan"><tspan font-weight="normal" class="text-inner-tspan" font-style="normal">Europe</tspan></tspan></text></g></g></g><g transform="translate(457.3354894198485, 346.32579782113737)" class="mindmap-node section-1"><g><path d="M0 32.8 v-27.799999999999997 q0,-5 5,-5 h38.890625 q5,0 5,5 v32.8 H0 Z" class="node-bkg node-no-border" id="node-11"/><line y2="37.8" x2="48.890625" y1="37.8" x1="0" class="node-line-1"/></g><g transform="translate(24.4453125, 5)" text-anchor="middle" dominant-baseline="middle" alignment-baseline="middle" dy="1em"><g><rect style="stroke: none" class="background"/><text style="" y="-10.1"><tspan dy="1.1em" y="-0.1em" x="0" class="text-outer-tspan"><tspan font-weight="normal" class="text-inner-tspan" font-style="normal">Asia</tspan></tspan></text></g></g></g><g transform="translate(470.40610162260714, 413.53262674580196)" class="mindmap-node section-1"><g><path d="M0 32.8 v-27.799999999999997 q0,-5 5,-5 h82.8125 q5,0 5,5 v32.8 H0 Z" class="node-bkg node-no-border" id="node-12"/><line y2="37.8" x2="92.8125" y1="37.8" x1="0" class="node-line-1"/></g><g transform="translate(46.40625, 5)" text-anchor="middle" dominant-baseline="middle" alignment-baseline="middle" dy="1em"><g><rect style="stroke: none" class="background"/><text style="" y="-10.1"><tspan dy="1.1em" y="-0.1em" x="0" class="text-outer-tspan"><tspan font-weight="normal" class="text-inner-tspan" font-style="normal">Elsewhere</tspan></tspan></text></g></g></g><g transform="translate(231.56296121767934, 201.70964680639577)" class="mindmap-node section-3"><g><path d="M0 32.8 v-27.799999999999997 q0,-5 5,-5 h92.421875 q5,0 5,5 v32.8 H0 Z" class="node-bkg node-no-border" id="node-15"/><line y2="37.8" x2="102.421875" y1="37.8" x1="0" class="node-line-3"/></g><g transform="translate(51.2109375, 5)" text-anchor="middle" dominant-baseline="middle" alignment-baseline="middle" dy="1em"><g><rect style="stroke: none" class="background"/><text style="" y="-10.1"><tspan dy="1.1em" y="-0.1em" x="0" class="text-outer-tspan"><tspan font-weight="normal" class="text-inner-tspan" font-style="normal">Christianity</tspan></tspan></text></g></g></g><g transform="translate(317.337582584119, 284.02047537148655)" class="mindmap-node section-3"><g><path d="M0 32.8 v-27.799999999999997 q0,-5 5,-5 h68.015625 q5,0 5,5 v32.8 H0 Z" class="node-bkg node-no-border" id="node-18"/><line y2="37.8" x2="78.015625" y1="37.8" x1="0" class="node-line-3"/></g><g transform="translate(39.0078125, 5)" text-anchor="middle" dominant-baseline="middle" alignment-baseline="middle" dy="1em"><g><rect style="stroke: none" class="background"/><text style="" y="-10.1"><tspan dy="1.1em" y="-0.1em" x="0" class="text-outer-tspan"><tspan font-weight="normal" class="text-inner-tspan" font-style="normal">Judaism</tspan></tspan></text></g></g></g><g transform="translate(346.4471679886228, 135.93551717123808)" class="mindmap-node section-3"><g><path d="M0 32.8 v-27.799999999999997 q0,-5 5,-5 h47.34375 q5,0 5,5 v32.8 H0 Z" class="node-bkg node-no-border" id="node-21"/><line y2="37.8" x2="57.34375" y1="37.8" x1="0" class="node-line-3"/></g><g transform="translate(28.671875, 5)" text-anchor="middle" dominant-baseline="middle" alignment-baseline="middle" dy="1em"><g><rect style="stroke: none" class="background"/><text style="" y="-10.1"><tspan dy="1.1em" y="-0.1em" x="0" class="text-outer-tspan"><tspan font-weight="normal" class="text-inner-tspan" font-style="normal">Islam</tspan></tspan></text></g></g></g><g transform="translate(454.92107163876153, 137.96409822411954)" class="mindmap-node section-3"><g><path d="M0 32.8 v-27.799999999999997 q0,-5 5,-5 h118.703125 q5,0 5,5 v32.8 H0 Z" class="node-bkg node-no-border" id="node-22"/><line y2="37.8" x2="128.703125" y1="37.8" x1="0" class="node-line-3"/></g><g transform="translate(64.3515625, 5)" text-anchor="middle" dominant-baseline="middle" alignment-baseline="middle" dy="1em"><g><rect style="stroke: none" class="background"/><text style="" y="-10.1"><tspan dy="1.1em" y="-0.1em" x="0" class="text-outer-tspan"><tspan font-weight="normal" class="text-inner-tspan" font-style="normal">Other</tspan><tspan font-weight="normal" class="text-inner-tspan" font-style="normal"> Religions</tspan></tspan></text></g></g></g><g transform="translate(994.2626335925995, 238.43947813831775)" class="mindmap-node section-4"><g><path d="M0 32.8 v-27.799999999999997 q0,-5 5,-5 h152.75 q5,0 5,5 v32.8 H0 Z" class="node-bkg node-no-border" id="node-24"/><line y2="37.8" x2="162.75" y1="37.8" x1="0" class="node-line-4"/></g><g transform="translate(81.375, 5)" text-anchor="middle" dominant-baseline="middle" alignment-baseline="middle" dy="1em"><g><rect style="stroke: none" class="background"/><text style="" y="-10.1"><tspan dy="1.1em" y="-0.1em" x="0" class="text-outer-tspan"><tspan font-weight="normal" class="text-inner-tspan" font-style="normal">Quantum</tspan><tspan font-weight="normal" class="text-inner-tspan" font-style="normal"> Mechanics</tspan></tspan></text></g></g></g><g transform="translate(894.2221040375789, 169.9829394917706)" class="mindmap-node section-4"><g><path d="M0 32.8 v-27.799999999999997 q0,-5 5,-5 h169.203125 q5,0 5,5 v32.8 H0 Z" class="node-bkg node-no-border" id="node-25"/><line y2="37.8" x2="179.203125" y1="37.8" x1="0" class="node-line-4"/></g><g transform="translate(89.6015625, 5)" text-anchor="middle" dominant-baseline="middle" alignment-baseline="middle" dy="1em"><g><rect style="stroke: none" class="background"/><text style="" y="-10.1"><tspan dy="1.1em" y="-0.1em" x="0" class="text-outer-tspan"><tspan font-weight="normal" class="text-inner-tspan" font-style="normal">Quantum</tspan><tspan font-weight="normal" class="text-inner-tspan" font-style="normal"> Field</tspan><tspan font-weight="normal" class="text-inner-tspan" font-style="normal"> Theory</tspan></tspan></text></g></g></g><g transform="translate(709.0097795773088, 167.95780202103322)" class="mindmap-node section-4"><g><path d="M0 32.8 v-27.799999999999997 q0,-5 5,-5 h85.734375 q5,0 5,5 v32.8 H0 Z" class="node-bkg node-no-border" id="node-26"/><line y2="37.8" x2="95.734375" y1="37.8" x1="0" class="node-line-4"/></g><g transform="translate(47.8671875, 5)" text-anchor="middle" dominant-baseline="middle" alignment-baseline="middle" dy="1em"><g><rect style="stroke: none" class="background"/><text style="" y="-10.1"><tspan dy="1.1em" y="-0.1em" x="0" class="text-outer-tspan"><tspan font-weight="normal" class="text-inner-tspan" font-style="normal">Cosmology</tspan></tspan></text></g></g></g><g transform="translate(929.5555310708874, 317.2889996138017)" class="mindmap-node section-5"><g><path d="M0 32.8 v-27.799999999999997 q0,-5 5,-5 h123.375 q5,0 5,5 v32.8 H0 Z" class="node-bkg node-no-border" id="node-28"/><line y2="37.8" x2="133.375" y1="37.8" x1="0" class="node-line-5"/></g><g transform="translate(66.6875, 5)" text-anchor="middle" dominant-baseline="middle" alignment-baseline="middle" dy="1em"><g><rect style="stroke: none" class="background"/><text style="" y="-10.1"><tspan dy="1.1em" y="-0.1em" x="0" class="text-outer-tspan"><tspan font-weight="normal" class="text-inner-tspan" font-style="normal">Decision</tspan><tspan font-weight="normal" class="text-inner-tspan" font-style="normal"> Theory</tspan></tspan></text></g></g></g><g transform="translate(781.8275582683259, 373.8947289498535)" class="mindmap-node section-5"><g><path d="M0 32.8 v-27.799999999999997 q0,-5 5,-5 h182.015625 q5,0 5,5 v32.8 H0 Z" class="node-bkg node-no-border" id="node-29"/><line y2="37.8" x2="192.015625" y1="37.8" x1="0" class="node-line-5"/></g><g transform="translate(96.0078125, 5)" text-anchor="middle" dominant-baseline="middle" alignment-baseline="middle" dy="1em"><g><rect style="stroke: none" class="background"/><text style="" y="-10.1"><tspan dy="1.1em" y="-0.1em" x="0" class="text-outer-tspan"><tspan font-weight="normal" class="text-inner-tspan" font-style="normal">Programming</tspan><tspan font-weight="normal" class="text-inner-tspan" font-style="normal"> Languages</tspan></tspan></text></g></g></g><g transform="translate(698.0806487307432, 502.78690509629473)" class="mindmap-node section-1"><g><path d="M0 32.8 v-27.799999999999997 q0,-5 5,-5 h37.515625 q5,0 5,5 v32.8 H0 Z" class="node-bkg node-no-border" id="node-8"/><line y2="37.8" x2="47.515625" y1="37.8" x1="0" class="node-line-1"/></g><g transform="translate(23.7578125, 5)" text-anchor="middle" dominant-baseline="middle" alignment-baseline="middle" dy="1em"><g><rect style="stroke: none" class="background"/><text style="" y="-10.1"><tspan dy="1.1em" y="-0.1em" x="0" class="text-outer-tspan"><tspan font-weight="normal" class="text-inner-tspan" font-style="normal">USA</tspan></tspan></text></g></g></g><g transform="translate(505.401198660265, 509.69023705845507)" class="mindmap-node section-1"><g><path d="M0 32.8 v-27.799999999999997 q0,-5 5,-5 h114.515625 q5,0 5,5 v32.8 H0 Z" class="node-bkg node-no-border" id="node-9"/><line y2="37.8" x2="124.515625" y1="37.8" x1="0" class="node-line-1"/></g><g transform="translate(62.2578125, 5)" text-anchor="middle" dominant-baseline="middle" alignment-baseline="middle" dy="1em"><g><rect style="stroke: none" class="background"/><text style="" y="-10.1"><tspan dy="1.1em" y="-0.1em" x="0" class="text-outer-tspan"><tspan font-weight="normal" class="text-inner-tspan" font-style="normal">Pre-Columbian</tspan></tspan></text></g></g></g><g transform="translate(102.97736310897415, 133.502882304556)" class="mindmap-node section-3"><g><path d="M0 32.8 v-27.799999999999997 q0,-5 5,-5 h147.375 q5,0 5,5 v32.8 H0 Z" class="node-bkg node-no-border" id="node-16"/><line y2="37.8" x2="157.375" y1="37.8" x1="0" class="node-line-3"/></g><g transform="translate(78.6875, 5)" text-anchor="middle" dominant-baseline="middle" alignment-baseline="middle" dy="1em"><g><rect style="stroke: none" class="background"/><text style="" y="-10.1"><tspan dy="1.1em" y="-0.1em" x="0" class="text-outer-tspan"><tspan font-weight="normal" class="text-inner-tspan" font-style="normal">Historical</tspan><tspan font-weight="normal" class="text-inner-tspan" font-style="normal"> Theology</tspan></tspan></text></g></g></g><g transform="translate(15, 233.39195905956615)" class="mindmap-node section-3"><g><path d="M0 32.8 v-27.799999999999997 q0,-5 5,-5 h151.734375 q5,0 5,5 v32.8 H0 Z" class="node-bkg node-no-border" id="node-17"/><line y2="37.8" x2="161.734375" y1="37.8" x1="0" class="node-line-3"/></g><g transform="translate(80.8671875, 5)" text-anchor="middle" dominant-baseline="middle" alignment-baseline="middle" dy="1em"><g><rect style="stroke: none" class="background"/><text style="" y="-10.1"><tspan dy="1.1em" y="-0.1em" x="0" class="text-outer-tspan"><tspan font-weight="normal" class="text-inner-tspan" font-style="normal">Ancient</tspan><tspan font-weight="normal" class="text-inner-tspan" font-style="normal"> Christianity</tspan></tspan></text></g></g></g><g transform="translate(155.97811128733588, 312.88711350710173)" class="mindmap-node section-3"><g><path d="M0 32.8 v-27.799999999999997 q0,-5 5,-5 h97 q5,0 5,5 v32.8 H0 Z" class="node-bkg node-no-border" id="node-19"/><line y2="37.8" x2="107" y1="37.8" x1="0" class="node-line-3"/></g><g transform="translate(53.5, 5)" text-anchor="middle" dominant-baseline="middle" alignment-baseline="middle" dy="1em"><g><rect style="stroke: none" class="background"/><text style="" y="-10.1"><tspan dy="1.1em" y="-0.1em" x="0" class="text-outer-tspan"><tspan font-weight="normal" class="text-inner-tspan" font-style="normal">Pre-Judaism</tspan></tspan></text></g></g></g><g transform="translate(262.80633467565485, 374.5690462116422)" class="mindmap-node section-3"><g><path d="M0 32.8 v-27.799999999999997 q0,-5 5,-5 h117.953125 q5,0 5,5 v32.8 H0 Z" class="node-bkg node-no-border" id="node-20"/><line y2="37.8" x2="127.953125" y1="37.8" x1="0" class="node-line-3"/></g><g transform="translate(63.9765625, 5)" text-anchor="middle" dominant-baseline="middle" alignment-baseline="middle" dy="1em"><g><rect style="stroke: none" class="background"/><text style="" y="-10.1"><tspan dy="1.1em" y="-0.1em" x="0" class="text-outer-tspan"><tspan font-weight="normal" class="text-inner-tspan" font-style="normal">Temple</tspan><tspan font-weight="normal" class="text-inner-tspan" font-style="normal"> Studies</tspan></tspan></text></g></g></g></g></svg>